<svg xmlns="http://www.w3.org/2000/svg" viewBox="0 0 1280 1280" width="128" height="128">
  <g transform="translate(0,1200) scale(0.1,-0.1)">
    <path fill="#000000" d="M6090 8240c-332 -22 -599 -91 -886 -229 -193 -93 -424 -243 -424 -274 0 -7 25 -37 55 -67l55 -54 -2 -556 -3 -555 -25 -12c-18 -8 -154 -12 -465 -15l-440 -3 -16 -50c-9 -27 -18 -67 -22 -87l-6 -37 103 -49c315 -151 591 -440 695 -729 132 -365 102 -741 -84 -1068 -25 -44 -63 -100 -83 -125 -21 -25 -42 -51 -46 -58 -10 -17 112 -142 239 -245 328 -265 722 -441 1145 -513 195 -34 475 -38 661 -11 357 53 716 188 1000 377 286 191 533 449 728 762 70 111 194 366 185 380 -3 4 -374 8 -826 8l-820 0 -68 -45c-88 -58 -177 -99 -282 -127 -118 -33 -353 -32 -478 1 -333 87 -611 353 -704 675 -35 119 -50 297 -36 430 49 486 420 859 890 896 245 19 431 -23 609 -138l64 -42 835 0 835 0 -7 32c-12 62 -144 313 -234 448 -183 272 -393 482 -657 659 -364 243 -786 388 -1225 421 -69 5 -129 9 -135 8 -5 0 -62 -4 -125 -8z"/>
    <path fill="#004FFF" d="M1721 7578c-429 -87 -749 -360 -880 -753 -117 -350 -61 -732 152 -1050 52 -77 207 -230 288 -284 139 -92 338 -173 493 -200 39 -7 362 -11 930 -11 868 0 870 0 900 -21 46 -31 68 -66 74 -114 4 -39 1 -47 -38 -89l-43 -46 -1382 0c-1252 0 -1383 -1 -1389 -16 -9 -24 -7 -1037 2 -1052 7 -10 294 -12 1463 -9l1454 3 95 26c154 43 339 131 414 197 142 125 197 190 269 316 168 291 210 628 116 930 -56 182 -222 437 -355 546 -92 75 -112 90 -187 135 -153 91 -334 151 -522 173 -57 7 -385 11 -897 11l-808 0 -45 43c-43 42 -45 46 -45 102 0 63 24 108 78 143 24 16 124 17 1487 22l1460 5 0 504 0 505 -1498 1c-1402 1 -1503 0 -1586 -17z"/>
    <path fill="#004FFF" d="M9105 6545c-299 -66 -514 -299 -557 -605 -36 -258 103 -546 329 -679 295 -174 641 -138 881 93 167 162 245 419 197 651 -18 88 -90 233 -153 306 -93 110 -251 206 -387 234 -86 18 -229 18 -310 0zm316 -333c58 -28 153 -123 182 -182 33 -68 37 -233 7 -313 -25 -66 -109 -164 -174 -202 -85 -49 -227 -52 -330 -6 -60 26 -160 126 -189 188 -19 41 -22 65 -22 163 0 142 16 183 107 274 87 87 140 107 273 103 79 -2 110 -7 146 -25z"/>
    <path fill="#004FFF" d="M5692 6542c-9 -7 -12 -49 -10 -178l3 -169 429 -3c425 -2 430 -2 453 -24 34 -31 31 -86 -5 -121l-28 -27 -424 -2 -425 -3 0 -420 0 -420 178 -3c153 -2 178 0 183 13 4 9 7 120 8 248l1 232 265 6c284 6 285 6 406 67 112 56 195 179 217 322 19 124 -29 258 -131 359 -62 62 -142 100 -251 121 -64 12 -850 13 -869 2z"/>
    <path fill="#004FFF" d="M7065 6538c-3 -7 -4 -317 -3 -688l3 -675 165 0 165 0 3 273c1 168 6 272 12 270 5 -2 51 -43 102 -92 112 -108 308 -296 405 -388l71 -68 211 0c165 0 211 3 211 13 0 7 -42 52 -92 101 -140 133 -150 142 -185 160 -18 9 -42 33 -52 54 -11 20 -54 71 -95 112 -42 41 -76 78 -76 82 0 5 28 8 63 8 142 0 306 64 372 145 75 92 119 222 109 320 -12 108 -74 228 -146 282 -42 31 -128 71 -193 89 -70 19 -1043 21 -1050 2zm971 -304c68 -32 93 -117 54 -181 -35 -58 -37 -58 -375 -58l-310 0 -3 114c-1 63 0 121 2 128 4 10 66 13 302 13 251 0 301 -2 330 -16z"/>
    <path fill="#000000" d="M1064 3710c-103 -22 -165 -63 -201 -133 -56 -110 -22 -233 80 -295 29 -17 99 -45 157 -62 58 -17 122 -36 144 -42 84 -26 108 -73 60 -119 -22 -20 -38 -24 -105 -28 -108 -4 -176 25 -200 87 -8 22 -13 23 -96 20l-88 -3 3 -35c4 -50 51 -138 87 -166 121 -92 330 -107 474 -34 72 36 106 75 127 146 22 76 0 157 -58 211 -37 34 -151 83 -266 114 -123 33 -156 53 -160 96 -2 23 3 36 24 52 22 18 40 21 110 21 74 0 86 -3 113 -25 16 -15 31 -38 33 -53l3 -27 90 0 90 0 3 37c4 47 -45 145 -88 177 -74 54 -232 84 -336 61z"/>
    <path fill="#000000" d="M4644 3710c-64 -13 -159 -65 -193 -107 -63 -76 -76 -129 -76 -308 0 -128 4 -170 18 -211 28 -81 72 -142 114 -161 21 -9 61 -27 88 -42 99 -50 269 -29 379 47 83 57 126 172 126 337 0 265 -59 374 -232 429 -81 27 -146 31 -224 16zm180 -184c55 -23 72 -59 79 -161 3 -49 2 -128 -2 -173 -6 -80 -8 -85 -44 -118 -35 -33 -40 -34 -114 -34 -60 0 -86 5 -110 20 -58 35 -65 62 -61 240l3 159 30 31c16 17 43 35 60 39 47 14 122 12 159 -3z"/>
    <path fill="#000000" d="M1592 3623l3 -88 112 -3 113 -3 2 -332 3 -332 90 0 90 0 5 330 5 330 110 5 110 5 0 85 0 85 -323 3 -323 2 3 -87z"/>
    <path fill="#000000" d="M2364 3695c-4 -8 -4 -154 -2 -324l4 -308 28 -57c49 -100 156 -150 316 -150 162 1 267 50 316 151l29 58 0 320 0 320 -90 0 -90 0 -5 -308 -5 -309 -27 -23c-32 -27 -106 -40 -177 -30 -36 5 -56 15 -80 39l-31 32 -2 299 -3 300 -88 3c-71 2 -88 0 -93 -13z"/>
    <path fill="#000000" d="M3208 3413c-2 -164 -2 -356 0 -426l3 -129 212 4c233 5 270 13 369 78 92 61 137 211 123 405 -11 159 -54 252 -140 304 -78 47 -161 61 -377 61l-187 0 -3 -297zm465 69l42 -42 0 -153c0 -143 -1 -154 -23 -185 -37 -52 -68 -62 -185 -62l-105 0 -3 28c-3 15 -3 125 -1 246l4 218 115 -4 114 -4 42 -42z"/>
    <path fill="#000000" d="M4047 3704c-3 -4 -6 -190 -6 -415 -1 -474 -12 -432 117 -427l77 3 0 420 0 420 -90 3c-50 1 -94 0 -98 -4z"/>
  </g>
</svg>
